<?xml version="1.0" encoding="utf-8"?>

<svg xmlns="http://www.w3.org/2000/svg" style="display: none;">
    <symbol id="home" width="30px" height="30px" viewBox="0 0 24 24" fill="none">
        <path d="M3 12L12 3l9 9M5 12v7a2 2 0 0 0 2 2h3v-5h4v5h3a2 2 0 0 0 2-2v-7"/>
    </symbol>
    <symbol id="eye" width="30px" height="30px" viewBox="0 0 24 24" fill="none">
        <path d="M1 12C3 7 7.5 4 12 4s9 3 11 8c-2 5-6.5 8-11 8S3 17 1 12zm11 4a4 4 0 1 0 0-8 4 4 0 0 0 0 8z"/>
    </symbol>
    <symbol id="person" width="30px" height="30px" viewBox="0 0 24 24" fill="none">
        <path d="M12 2a4 4 0 1 1 0 8 4 4 0 0 1 0-8zm0 10c-5 0-9 2.5-9 6v2h18v-2c0-3.5-4-6-9-6z"/>
    </symbol>
    <symbol id="chat" width="30px" height="30px" viewBox="0 0 30 30" fill="none">
        <path d="M21 11.5a8.38 8.38 0 0 1-1.9 5.4 8.5 8.5 0 0 1-6.6 3.1 8.38 8.38 0 0 1-4.6-1.4L3 21l1.4-4.6a8.5 8.5 0 1 1 16.6-4.9z"/>
    </symbol>
    <symbol id="fin" width="30px" height="30px" viewBox="0 0 30 30" fill="none">
        <path d="M11 4a7 7 0 1 0 4.9 11.9l4.6 4.6-1.4 1.4-4.6-4.6A7 7 0 0 0 11 4z"/>    
    </symbol>
    <symbol id="settings" width="30px" height="30px" viewBox="0 0 30 30" fill="none">
        <path d="M12 15.5C13.93 15.5 15.5 13.93 15.5 12C15.5 10.07 13.93 8.5 12 8.5C10.07 8.5 8.5 10.07 8.5 12C8.5 13.93 10.07 15.5 12 15.5ZM19.43 12.98C19.46 12.66 19.5 12.33 19.5 12C19.5 11.67 19.46 11.34 19.43 11.02L21.54 9.37C21.71 9.24 21.76 9 21.66 8.8L19.66 5.2C19.56 5 19.32 4.94 19.12 5.03L16.56 6.04C16.03 5.64 15.45 5.3 14.82 5.03L14.5 2.27C14.48 2.1 14.34 2 14.17 2H9.83C9.66 2 9.52 2.1 9.5 2.27L9.18 5.03C8.55 5.3 7.97 5.64 7.44 6.04L4.88 5.03C4.68 4.94 4.44 5 4.34 5.2L2.34 8.8C2.24 9 2.29 9.24 2.46 9.37L4.57 11.02C4.54 11.34 4.5 11.67 4.5 12C4.5 12.33 4.54 12.66 4.57 12.98L2.46 14.63C2.29 14.76 2.24 15 2.34 15.2L4.34 18.8C4.44 19 4.68 19.06 4.88 18.97L7.44 17.96C7.97 18.36 8.55 18.7 9.18 18.97L9.5 21.73C9.52 21.9 9.66 22 9.83 22H14.17C14.34 22 14.48 21.9 14.5 21.73L14.82 18.97C15.45 18.7 16.03 18.36 16.56 17.96L19.12 18.97C19.32 19.06 19.56 19 19.66 18.8L21.66 15.2C21.76 15 21.71 14.76 21.54 14.63L19.43 12.98Z"/>
    </symbol>
    <symbol id="trash" width="30px" height="30px" viewBox="0 0 30 30" fill="white">
        <path d="M3 6h18M9 6V4h6v2m-9 0l1 14h10l1-14"/>
    </symbol>
</svg>
