<svg  viewBox="0 0 200 200" fill="none" xmlns="http://www.w3.org/2000/svg">
<mask id="mask0_690_20125_805652660859342" maskUnits="userSpaceOnUse"  width="200px" height="200px">
<rect  width="200px" height="200px" rx="8" fill="#C4C4C4"></rect></mask>
<g mask="url(#mask0_690_20125_805652660859342)">
  <path d="M13.3539 33.6968V33.6887L8.68418 31.4372C8.34271 31.2732 8.03909 31.0534 7.78411 30.7894C7.19758 30.2002 6.85342 29.7866 6.85071 28.9244L6.81287 20.9589C6.81107 20.5382 
  7.23903 20.2526 7.62644 20.4148L11.3249 21.9644C12.5259 22.4645 13.3097 23.6375 13.3152 24.9385L13.3323 28.6181L13.3494 32.576C13.3494 32.5922 
  13.3494 32.6066 13.3521 32.6229C13.3494 32.6283 13.3494 32.631 13.3521 32.6364C13.3773 33.3058 13.7548 33.8536 14.2801 34.1401L13.3539 33.6968Z" 
  fill="url(#paint0_linear_690_20125_805652660859342)"></path>
  <path d="M27.6461 20.9355L28.4984 27.4504V27.837C28.4957 27.8928 28.4876 27.9451 28.4758 28.0009C28.4704 28.0343 
  28.465 28.0703 28.456 28.1009C28.4533 28.109 28.4533 28.1145 28.4506 28.1235C28.4479 28.1316 28.4479 28.137 28.4452 28.146C28.4371 
  28.182 28.4254 28.2208 28.4119 28.2541C28.4119 28.2568 28.4092 28.2595 28.4092 28.2622C28.3839 28.3397 28.3506 28.4154 28.3119 28.4875C28.2948 
  28.5181 28.2785 28.546 28.2614 28.5739C28.22 28.6433 28.1695 28.71 28.1137 28.774C28.0803 28.8127 28.047 28.8487 28.0082 28.8848C27.9578 
  28.9325 27.9055 28.9767 27.847 29.0181C27.7911 29.0596 27.7298 29.0983 27.6632 29.1353C27.5857 29.1794 27.5046 29.219 27.4217 29.2578L15.8984 
  34.5915H15.8957C15.4236 34.8113 14.9253 34.8059 14.492 34.6357C14.4893 34.6357 14.4866 34.6357 14.4839 34.633L14.2811 34.5357L14.2784 34.5329L13.3531 
  34.0879V34.0798L8.68435 31.8282C8.34288 31.6643 8.03926 31.4444 7.78428 31.1804C7.24821 30.6417 6.91395 29.9245 6.86169 29.1461C6.96981 30.2939 
  7.90952 31.1192 8.97986 30.63L8.98257 30.6273L13.3324 28.6181L22.8989 24.1961L26.6631 22.4582L26.7631 22.4086C26.7712 22.4032 26.7802 22.3978 
  26.791 22.3915C26.7937 22.3888 26.7964 22.3888 26.7992 22.3888C26.8298 22.3717 26.8631 22.3501 26.8911 22.3302C26.9271 22.3077 26.9631 22.2834 
  26.9965 22.2582C27.0298 22.2302 27.0604 22.205 27.0911 22.1744C27.1046 22.1636 27.119 22.1492 27.1325 22.1356C27.1406 22.1302 27.146 22.1248 27.155 
  22.1158C27.1938 22.0798 27.2271 22.041 27.2604 21.9987C27.3109 21.9374 27.3577 21.8735 27.3992 21.8041C27.4271 21.7572 27.4551 21.7068 27.4767 
  21.6572C27.4794 21.6545 27.4821 21.6518 27.4821 21.6491C27.5046 21.605 27.5235 21.5572 27.5406 21.5104C27.5433 21.5023 27.5461 21.4932 27.5488 
  21.4851C27.5542 21.4716 27.5596 21.4545 27.565 21.4383C27.5758 21.3968 27.5902 21.3554 27.5983 21.3131C27.6037 21.2932 27.6064 21.2716 27.6091 
  21.2518C27.6172 21.2212 27.6226 21.1905 27.6262 21.1599C27.6316 21.1374 27.6316 21.1157 27.6343 21.0932C27.6398 21.0626 27.6425 21.032 27.6425 
  21.004C27.6461 20.9824 27.6461 20.9599 27.6461 20.9355Z" fill="url(#paint1_linear_690_20125_805652660859342)">
  </path><path d="M28.5 20.5426V27.6026C28.4586 26.9935 28.1 26.3989 27.4522 26.1295L22.8969 24.2204L5.88756 17.0955C4.44241 
  16.4901 3.5 15.0756 3.5 13.5052V9.82563C3.5 9.40668 3.92706 9.12288 4.31357 9.28415L27.2855 18.9083C27.4026 18.9587 27.5134 
  19.011 27.6216 19.0695C28.2108 19.3831 28.5 19.9615 28.5 20.5426Z" fill="url(#paint2_linear_690_20125_805652660859342)">
  </path><path d="M36.5 15.1914H42.6865C44.2389 15.1914 45.6153 15.4991 46.8183 16.1153C48.0213 16.7306 48.954 17.5939 49.6184 
  18.706C50.2819 19.8182 50.6146 21.0945 50.6146 22.5358C50.6146 23.9771 50.2828 25.2524 49.6184 26.3646C48.954 27.4768 48.0213 
  28.3401 46.8183 28.9554C45.6153 29.5707 44.2389 29.8792 42.6865 29.8792H36.5V15.1914ZM42.5607 28.0529C43.7488 28.0529 44.7943 
  27.8227 45.6954 27.3603C46.5974 26.8988 47.2926 26.2518 47.7827 25.4193C48.2719 24.5877 48.517 23.6256 48.517 22.5349C48.517 
  21.4441 48.2719 20.482 47.7827 19.6495C47.2935 18.817 46.5974 18.17 45.6954 17.7085C44.7943 17.2471 43.7488 17.0158 42.5607 
  17.0158H38.5966V28.052H42.5607V28.0529Z" fill="white"></path><path d="M63.4597 24.989H54.4423C54.5681 25.9679 54.9976 26.7547 
  55.7319 27.3495C56.4662 27.9443 57.3785 28.2407 58.4687 28.2407C59.7966 28.2407 60.8664 27.7932 61.6771 26.8983L62.7888 28.1988C62.2856 
  28.7861 61.6594 29.2345 60.912 29.5412C60.1638 29.8489 59.3288 30.0027 58.4054 30.0027C57.2313 30.0027 56.1895 29.7613 55.2809 29.2793C54.3724 
  28.7964 53.6688 28.1223 53.1731 27.2553C52.6764 26.3883 52.4286 25.4085 52.4286 24.3178C52.4286 23.2401 52.6699 22.2686 53.1517 21.4016C53.6344 
  20.5346 54.2988 19.8597 55.1439 19.3768C55.9901 18.8938 56.9443 18.6533 58.0066 18.6533C59.0689 18.6533 60.0156 18.8948 60.8487 19.3768C61.6799 
  19.8597 62.3303 20.5346 62.799 21.4016C63.2668 22.2686 63.5016 23.2615 63.5016 24.3812C63.5016 24.535 63.4867 24.7373 63.4597 24.989ZM55.5838 
  21.2329C54.9343 21.8202 54.5532 22.5903 54.4413 23.5412H61.5718C61.46 22.6043 61.0788 21.8379 60.4284 21.2441C59.778 20.6502 58.9701 20.3528 
  58.0066 20.3528C57.0421 20.3519 56.2351 20.6456 55.5838 21.2329Z" fill="white"></path><path d="M75.6144 18.7578L70.7492 29.8779H68.6936L63.8284 
  18.7578H65.9251L69.7419 27.6749L73.6426 18.7578H75.6144Z" fill="white"></path><path d="M77.4557 16.24C77.1967 15.9883 77.0672 15.6806 77.0672 
  15.3161C77.0672 14.9525 77.1958 14.6411 77.4557 14.3829C77.7139 14.1247 78.0391 13.9941 78.4304 13.9941C78.8218 13.9941 79.147 14.1163 79.4061 
  14.3615C79.6642 14.6066 79.7947 14.9106 79.7947 15.2741C79.7947 15.6517 79.6651 15.9705 79.4061 16.2288C79.148 16.487 78.8218 16.6175 78.4304 
  16.6175C78.0391 16.6175 77.7139 16.4917 77.4557 16.24ZM77.425 18.758H78.4314H79.4378V24.318V29.8781H78.4314H77.425V24.318V18.758Z" fill="white">
  </path><path d="M99.6826 19.869C100.501 20.6801 100.91 21.8827 100.91 23.4778V29.8769H98.8971V23.709C98.8971 22.6313 98.6483 21.8202 98.1526 
  21.2748C97.6559 20.7304 96.9468 20.4573 96.0233 20.4573C95.0029 20.4573 94.1913 20.7752 93.5903 21.4119C92.9883 22.0486 92.6882 22.9604 92.6882 
  24.15V29.8778H90.6755V23.7099C90.6755 22.6322 90.4276 21.8212 89.9309 21.2758C89.4343 20.7313 88.7251 20.4582 87.8017 20.4582C86.7813 20.4582 
  85.9697 20.7761 85.3686 21.4128C84.7676 22.0496 84.4666 22.9613 84.4666 24.1509V29.8787H82.4538V18.7577H84.3828V20.4153C84.789 19.842 85.3193 
  19.4047 85.9771 19.1045C86.6341 18.8043 87.3823 18.6533 88.221 18.6533C89.0876 18.6533 89.8573 18.8286 90.5282 19.1782C91.1992 19.5278 91.7163 
  20.0377 92.0798 20.709C92.4991 20.0657 93.0833 19.5632 93.8307 19.1987C94.578 18.8351 95.4213 18.6533 96.3578 18.6533C97.7575 18.6524 98.8654 
  19.0589 99.6826 19.869Z" fill="white"></path><path d="M114.5 18.7578V29.8778H112.571V28.1158C112.123 28.7311 111.557 29.2001 110.871 29.5217C110.187 29.8443 109.432 30.0046 108.607 30.0046C107.53 30.0046 106.565 29.7669 105.713 29.2914C104.86 28.816 104.192 28.1475 103.709 27.288C103.228 26.4275 102.986 25.4375 102.986 24.3187C102.986 23.1991 103.228 22.2137 103.709 21.3607C104.192 20.5076 104.859 19.8429 105.713 19.3675C106.565 18.892 107.53 18.6543 108.607 18.6543C109.404 18.6543 110.137 18.8053 110.809 19.1055C111.481 19.4057 112.04 19.8504 112.487 20.4377V18.7587H114.5V18.7578ZM110.683 27.7476C111.256 27.4194 111.704 26.958 112.025 26.3632C112.347 25.7693 112.508 25.0869 112.508 24.3178C112.508 23.5487 112.347 22.8663 112.025 22.2715C111.704 21.6776 111.256 21.219 110.683 20.8973C110.11 20.5757 109.474 20.4144 108.775 20.4144C108.062 20.4144 107.423 20.5757 106.856 20.8973C106.29 21.219 105.842 21.6776 105.514 22.2715C105.185 22.8663 105.021 23.5478 105.021 24.3178C105.021 25.0869 105.185 25.7693 105.514 26.3632C105.842 26.958 106.29 27.4194 106.856 27.7476C107.423 28.0767 108.062 28.2408 108.775 28.2408C109.474 28.2408 110.109 28.0767 110.683 27.7476Z" fill="white"></path>
</g>
<defs>
  <linearGradient id="paint0_linear_690_20125_805652660859342" x1="13.546" y1="20.4336" x2="8.89518" y2="31.3702" gradientUnits="userSpaceOnUse">
    <stop stop-color="#A187FF"></stop><stop offset="1" stop-color="#4A36FF"></stop>
  </linearGradient><linearGradient id="paint1_linear_690_20125_805652660859342" x1="13.4562" y1="27.8474" x2="28.1004" y2="27.8474" gradientUnits="userSpaceOnUse">
<stop stop-color="#9A7EFF"></stop><stop offset="1" stop-color="#4A36FF"></stop><stop offset="1" stop-color="#301AFF"></stop></linearGradient>
<linearGradient id="paint2_linear_690_20125_805652660859342" x1="29.2313" y1="18.4201" x2="1.0117" y2="18.4201" gradientUnits="userSpaceOnUse">
<stop offset="0.000165344" stop-color="#00D9A2">
</stop><stop offset="0.2307" stop-color="#01D9A6">
</stop><stop offset="0.4621" stop-color="#05D8B2"></stop><stop offset="0.6941" stop-color="#0CD8C6"></stop>
<stop offset="0.9251" stop-color="#15D6E2"></stop><stop offset="1" stop-color="#18D6ED"></stop></linearGradient>
</defs></svg>